<?xml version="1.0" encoding="UTF-8" standalone="no"?>
<svg
   xmlns="http://www.w3.org/2000/svg"
   width="1024"
   height="1024"
   version="1.2"
   baseProfile="tiny">
  <circle
     style="fill:#231f20;fill-opacity:1"
     r="500"
     cy="512"
     cx="512"
     id="path3810" />
  <circle
     r="386"
     cy="512"
     cx="512"
     id="path3812"
     style="fill:#ffffff;fill-opacity:1" />
  <path
     id="path3814"
     d="m 459.61941,880.05326 39.14341,5.80838 109.00504,-302.21878 C 538.99801,552.93206 541.2851,568.78651 443.92857,591.5 330.74972,617.90487 219.0586,570.91692 140.71429,502.57143 138.50958,553.156 205.83886,724.66737 428.125,693.375 c 39.18743,-5.51661 87.30534,22.0234 87.30534,22.0234 z"
     fill="#ed1c24"/>
  <path
     id="path3818"
     d="m 621.78572,870.78571 c 21.78571,-3.57142 30.58082,-8.67448 46.07142,-17.85714 L 850.29591,345.43003 c 0,0 -23.7257,-13.74263 -33.58758,-26.01143 z"
     style="fill:#231f20;fill-opacity:1" />
  <path
     id="path6064"
     d="m 684.20727,606.31999 c -44.47455,-27.72487 -64.38515,-38.10632 -87.5,-45.62282 -18.60365,-6.04955 -34.38638,-8.31362 -53.47113,-7.67055 -19.97343,0.67301 -33.59695,3.46907 -61.45097,12.61209 -31.86329,10.45905 -52.82458,14.96193 -80.223,17.23344 -11.60853,0.96243 -48.13659,0.50334 -56.64062,-0.71187 -2.94643,-0.42104 -7.76786,-1.1087 -10.71428,-1.52814 -61.79528,-8.79688 -122.53987,-37.73146 -180.71429,-86.0799 -7.78777,-6.47237 -12.82889,-11.04714 -12.82889,-11.04714 0,0 0.28398,-4.40822 0.67404,-8.9631 0.40088,-4.68119 1.23195,-12.04696 1.84683,-16.36839 1.10002,-7.73101 6.49527,-32.22566 6.49527,-32.22566 0,0 4.12284,3.30034 8.72354,7.73467 18.69089,18.01499 41.41964,35.40381 64.73207,49.52379 12.8076,7.75738 37.10876,19.90627 49.81845,24.90578 27.23543,10.71338 56.89883,18.05446 85.89583,21.25748 13.25255,1.46387 52.3056,1.24649 65.35715,-0.36381 29.51698,-3.6418 48.8847,-8.73613 86.07142,-22.63953 52.42059,-19.59904 92.47666,-17.84104 139.64286,6.12874 12.39901,6.30115 24.32509,13.47681 46.78572,28.14993 29.774,19.45083 33.15347,21.85897 33.15347,21.85897 l -20.97567,59.21014 c 0,0 -11.51709,-7.18991 -24.6778,-15.39412 z"
     fill="#5bcffa" stroke="#5bcffa" stroke-width="1.79999995" />
  <path
     id="path6066"
     d="m 706.38585,544.96154 c -38.08891,-25.1423 -56.18136,-35.45822 -75.15756,-42.85318 -17.54471,-6.83712 -32.20952,-9.90023 -50.23531,-10.49291 -25.23251,-0.82963 -46.11851,3.42319 -79.64286,16.21694 -36.72213,14.01412 -66.60843,20.12193 -103.57143,21.1667 -78.30237,2.21327 -155.8557,-26.32181 -221.39473,-81.4603 -3.32068,-2.7937 -10.49911,-9.2263 -15.95208,-14.29466 -6.33644,-5.88951 -10.36032,-9.14856 -10.36032,-9.14856 0,0 2.06134,-7.03054 4.07699,-13.46212 5.06185,-16.15142 13.52611,-37.19198 13.52611,-37.19198 0,0 5.32995,5.19552 10.95255,10.56347 28.79866,27.49433 51.69961,43.84221 83.02897,59.27036 66.48571,32.74089 142.29434,41.46014 212.55109,24.44687 12.49195,-3.02503 34.03967,-10.32836 47.14285,-15.97849 31.5438,-13.60176 52.58138,-19.08552 77.14286,-20.10843 27.01609,-1.12515 53.35257,5.96481 81.64869,21.98038 14.17,8.02021 70.88682,48.97762 70.88682,48.97762 l -20.58072,58.30357 c 0,0 -10.97042,-7.29364 -24.06192,-15.93528 z"
     fill="#f5abb9" stroke="#f5abb9" stroke-width="1.79999995" />
  <path
     id="path6068"
     d="m 755.27869,425.59069 c -32.03375,-24.53538 -47.52017,-34.82504 -65,-43.188 -20.99509,-10.04479 -37.65417,-13.96125 -59.64285,-14.02172 -27.04811,-0.0744 -51.98407,6.39657 -87.79237,22.78234 -16.49848,7.54966 -24.1076,10.58898 -36.85049,14.71923 -18.07085,5.85718 -37.17686,9.95239 -57.85714,12.4012 -13.1486,1.55696 -50.41252,1.78204 -63.21429,0.38183 -40.24878,-4.4023 -74.05241,-13.71064 -106.98644,-29.46034 -18.42832,-8.81279 -36.11713,-19.80443 -51.22784,-31.83244 -7.79146,-6.20194 -28.54823,-26.02224 -32.62879,-31.15669 l -2.36014,-2.38769 5.38094,-9.04089 c 2.85683,-4.79994 8.69768,-14.16789 13.04084,-20.78148 l 7.86509,-11.89844 4.66038,5.11273 c 16.10698,17.67039 32.8986,31.43674 54.252,42.97164 72.91035,39.38542 167.5901,47.8365 245.2141,21.88772 13.38497,-4.47444 21.90669,-8.05849 40.647,-17.09527 17.71235,-8.54108 32.65895,-14.79554 43.37996,-18.15251 41.54551,-13.00877 75.2685,-11.36434 108.40576,5.28618 18.0044,9.04669 30.48978,17.84885 61.59774,43.42626 l 18.20492,14.56498 -9.45888,28.29216 c -5.11097,15.28728 -12.18391,32.62502 -12.18391,32.62502 0,0 1.01438,-1.29689 -17.44559,-15.43582 z"
     fill="#f5abb9" stroke="#f5abb9" stroke-width="1.79999995" />
  <path
     id="path6070"
     d="m 786.70727,371.94885 c -38.53115,-31.99003 -53.5831,-42.74788 -72.85715,-52.07209 -43.89315,-21.23419 -90.07278,-17.25998 -150.35714,12.93971 -40.16571,20.12117 -76.688,29.7765 -121.69454,32.1722 -63.96461,3.40482 -133.554,-14.68676 -182.23403,-47.3765 -12.89331,-8.65815 -21.09309,-15.81821 -33.17109,-28.96502 l -7.36199,-8.01346 6.08331,-8.01575 c 6.40898,-8.44489 18.15009,-22.31684 21.81949,-25.77942 l 2.17178,-2.04937 6.65782,6.71871 c 20.92565,21.11702 57.41659,39.36357 100.94354,50.47476 28.03709,7.15707 52.52022,10.16534 82.75737,10.16848 36.20956,0.004 65.72039,-4.65223 97.95691,-15.4549 14.23331,-4.76968 26.46829,-10.14963 48.93187,-21.51626 20.89808,-10.57449 36.30846,-17.06041 50.5485,-21.27485 47.78081,-14.14105 84.63018,-8.43605 123.6945,19.15029 9.34179,6.59696 19.99052,15.40876 38.64364,31.97753 16.39438,14.56243 16.46731,14.64455 16.46731,14.64455 0,0 -5.1781,16.26401 -10.38505,30.99615 -5.20693,14.73214 -10.38674,27.77804 -10.38674,27.77804 0,0 -3.51403,-2.58881 -8.22831,-6.5028 z"
     fill="#5bcffa" stroke="#5bcffa" stroke-width="1.79999995" />
  <path
     id="path6877"
     d="m 733.48404,487.0434 c -34.99847,-24.82994 -48.1282,-33.14502 -65.88459,-41.72481 -12.62742,-6.10151 -24.60745,-10.26735 -37.07037,-12.89054 -11.99445,-2.52459 -32.4698,-3.17506 -45.60753,-1.44888 -18.96054,2.49126 -38.31006,8.15045 -61.07143,17.8617 -16.24255,6.92997 -27.63632,11.07002 -40.36845,14.66832 -29.49026,8.33441 -61.69404,11.97788 -94.2744,10.66599 -66.5619,-2.68019 -131.53935,-26.83814 -183.18551,-68.10649 -7.70395,-6.15592 -28.15508,-24.71346 -34.87555,-31.64639 l -2.70391,-2.7894 2.44354,-5.65822 c 4.26777,-9.88238 8.95708,-19.63723 14.53914,-30.24478 l 5.42065,-10.30085 10.78796,11.04046 c 16.08808,16.46464 25.25745,24.15413 42.28047,35.45665 37.91746,25.1755 84.47558,41.63686 135.29321,47.83504 8.17301,0.99686 15.7798,1.25979 36.07142,1.24684 22.67235,-0.0145 27.12424,-0.20779 37.63296,-1.63412 33.13037,-4.49673 58.18166,-11.79048 89.07054,-25.93314 25.21749,-11.54597 42.13003,-17.35875 61.45248,-21.12098 8.69051,-1.69211 11.41267,-1.89407 26.12974,-1.9386 18.05689,-0.0546 22.89986,0.54786 37.02877,4.60649 18.04822,5.18447 35.59096,14.21912 57.64521,29.68774 11.34813,7.95946 48.48589,36.35108 48.48589,36.35108 l -21.11359,59.69042 c 0,0 -8.11372,-6.56977 -18.12665,-13.67353 z"
     fill="#ffffff" stroke="#ffffff" stroke-width="1.79999995" />
<text x="470" y="985" font-size="80">🦈</text>
</svg>
